<svg width="539" height="539" viewBox="0 0 539 539" fill="none" xmlns="http://www.w3.org/2000/svg">
<mask id="path-1-inside-1_eury_color" fill="#3B82F6">
<path d="M408.36 52.9357C408.36 46.5814 415.277 42.7037 420.537 46.2693C492.023 94.7312 539 176.629 539 269.5C539 418.341 418.341 539 269.5 539C246.185 539 223.561 536.039 201.984 530.472C198.445 529.559 196.021 526.337 196.021 522.683V471.949C196.021 466.214 201.784 462.254 207.247 464.001C226.873 470.278 247.791 473.667 269.5 473.667C382.258 473.667 473.667 382.258 473.667 269.5C473.667 211.652 449.607 159.424 410.95 122.274C409.312 120.7 408.36 118.537 408.36 116.266V52.9357ZM269.5 0C292.833 0 315.474 2.96528 337.066 8.53955C340.603 9.45294 343.027 12.6749 343.027 16.3289V67.0654C343.027 72.8013 337.262 76.761 331.799 75.0125C312.159 68.7266 291.226 65.333 269.5 65.333C156.742 65.333 65.333 156.742 65.333 269.5C65.333 327.371 89.4118 379.617 128.096 416.77C129.735 418.344 130.688 420.507 130.688 422.78V486.096C130.688 492.45 123.772 496.328 118.513 492.764C46.9982 444.306 0 362.392 0 269.5C0 120.659 120.659 0 269.5 0Z"/>
</mask>
<path d="M408.36 52.9357C408.36 46.5814 415.277 42.7037 420.537 46.2693C492.023 94.7312 539 176.629 539 269.5C539 418.341 418.341 539 269.5 539C246.185 539 223.561 536.039 201.984 530.472C198.445 529.559 196.021 526.337 196.021 522.683V471.949C196.021 466.214 201.784 462.254 207.247 464.001C226.873 470.278 247.791 473.667 269.5 473.667C382.258 473.667 473.667 382.258 473.667 269.5C473.667 211.652 449.607 159.424 410.95 122.274C409.312 120.7 408.36 118.537 408.36 116.266V52.9357ZM269.5 0C292.833 0 315.474 2.96528 337.066 8.53955C340.603 9.45294 343.027 12.6749 343.027 16.3289V67.0654C343.027 72.8013 337.262 76.761 331.799 75.0125C312.159 68.7266 291.226 65.333 269.5 65.333C156.742 65.333 65.333 156.742 65.333 269.5C65.333 327.371 89.4118 379.617 128.096 416.77C129.735 418.344 130.688 420.507 130.688 422.78V486.096C130.688 492.45 123.772 496.328 118.513 492.764C46.9982 444.306 0 362.392 0 269.5C0 120.659 120.659 0 269.5 0Z" fill="#3B82F6"/>
<path d="M65.333 269.5H52.8445H65.333ZM128.096 416.77L136.746 407.762L128.096 416.77ZM331.799 75.0125L327.992 86.9067L331.799 75.0125ZM410.95 122.274L402.297 131.279L410.95 122.274ZM337.066 8.53955L333.944 20.6316L337.066 8.53955ZM207.247 464.001L203.442 475.896L207.247 464.001ZM118.513 492.764L111.507 503.102L118.513 492.764ZM201.984 530.472L205.103 518.38L201.984 530.472ZM420.537 46.2693L413.529 56.6064L420.537 46.2693ZM420.537 46.2693L413.529 56.6064C481.734 102.844 526.511 180.944 526.511 269.5H539H551.489C551.489 172.314 502.312 86.6185 427.544 35.9322L420.537 46.2693ZM539 269.5H526.511C526.511 411.444 411.444 526.511 269.5 526.511V539V551.489C425.238 551.489 551.489 425.238 551.489 269.5H539ZM269.5 539V526.511C247.246 526.511 225.67 523.685 205.103 518.38L201.984 530.472L198.864 542.565C221.451 548.392 245.123 551.489 269.5 551.489V539ZM196.021 522.683H208.509V471.949H196.021H183.532V522.683H196.021ZM207.247 464.001L203.442 475.896C224.284 482.562 246.484 486.156 269.5 486.156V473.667V461.178C249.097 461.178 229.462 457.995 211.051 452.106L207.247 464.001ZM269.5 473.667V486.156C389.155 486.156 486.156 389.155 486.156 269.5H473.667H461.178C461.178 375.361 375.361 461.178 269.5 461.178V473.667ZM473.667 269.5H486.156C486.156 208.115 460.609 152.676 419.604 113.27L410.95 122.274L402.297 131.279C438.606 166.172 461.178 215.189 461.178 269.5H473.667ZM408.36 116.266H420.849V52.9357H408.36H395.872V116.266H408.36ZM269.5 0V12.4885C291.771 12.4885 313.363 15.3184 333.944 20.6316L337.066 8.53955L340.187 -3.55251C317.584 -9.38781 293.895 -12.4885 269.5 -12.4885V0ZM343.027 16.3289H330.539V67.0654H343.027H355.516V16.3289H343.027ZM331.799 75.0125L335.606 63.1184C314.751 56.4433 292.533 52.8445 269.5 52.8445V65.333V77.8215C289.919 77.8215 309.568 81.0099 327.992 86.9067L331.799 75.0125ZM269.5 65.333V52.8445C149.845 52.8445 52.8445 149.845 52.8445 269.5H65.333H77.8215C77.8215 163.639 163.639 77.8215 269.5 77.8215V65.333ZM65.333 269.5H52.8445C52.8445 330.909 78.4111 386.367 119.445 425.777L128.096 416.77L136.746 407.762C100.412 372.867 77.8215 323.832 77.8215 269.5H65.333ZM130.688 422.78H118.199V486.096H130.688H143.176V422.78H130.688ZM118.513 492.764L125.518 482.425C57.2862 436.192 12.4885 358.076 12.4885 269.5H0H-12.4885C-12.4885 366.708 36.7102 452.42 111.507 503.102L118.513 492.764ZM0 269.5H12.4885C12.4885 127.556 127.556 12.4885 269.5 12.4885V0V-12.4885C113.762 -12.4885 -12.4885 113.762 -12.4885 269.5H0ZM128.096 416.77L119.445 425.777C118.716 425.077 118.199 424.021 118.199 422.78H130.688H143.176C143.176 416.993 140.753 411.611 136.746 407.762L128.096 416.77ZM343.027 67.0654H330.539C330.539 65.521 331.372 64.2652 332.296 63.6179C333.181 62.9972 334.409 62.7352 335.606 63.1184L331.799 75.0125L327.992 86.9067C340.99 91.0668 355.516 81.8048 355.516 67.0654H343.027ZM410.95 122.274L419.604 113.27C420.332 113.97 420.849 115.025 420.849 116.266H408.36H395.872C395.872 122.05 398.293 127.431 402.297 131.279L410.95 122.274ZM337.066 8.53955L333.944 20.6316C331.801 20.0784 330.539 18.1958 330.539 16.3289H343.027H355.516C355.516 7.15396 349.406 -1.17253 340.187 -3.55251L337.066 8.53955ZM196.021 471.949H208.509C208.509 473.493 207.676 474.749 206.753 475.396C205.867 476.017 204.64 476.279 203.442 475.896L207.247 464.001L211.051 452.106C198.054 447.95 183.532 457.212 183.532 471.949H196.021ZM130.688 486.096H118.199C118.199 484.473 119.168 482.972 120.534 482.217C121.952 481.434 123.974 481.379 125.518 482.425L118.513 492.764L111.507 503.102C125.559 512.623 143.176 501.858 143.176 486.096H130.688ZM201.984 530.472L205.103 518.38C207.246 518.933 208.509 520.815 208.509 522.683H196.021H183.532C183.532 531.859 189.644 540.186 198.864 542.565L201.984 530.472ZM420.537 46.2693L427.544 35.9322C413.493 26.4065 395.872 37.1718 395.872 52.9357H408.36H420.849C420.849 54.559 419.88 56.0602 418.513 56.8148C417.095 57.5982 415.073 57.6529 413.529 56.6064L420.537 46.2693Z" fill="#3B82F6" mask="url(#path-1-inside-1_eury_color)"/>
<!-- Letter E - bold geometric sans-serif, centered -->
<path d="M172 377V162H377V205H215V248H356V291H215V334H377V377H172Z" fill="#3B82F6"/>
</svg>
