<svg width="272" height="272" viewBox="0 0 272 272" fill="none" xmlns="http://www.w3.org/2000/svg">
<mask id="path-1-inside-1_58_161" fill="white">
<path d="M205.701 27.5212C205.701 24.3358 209.168 22.3918 211.805 24.1791C247.646 48.4739 271.199 89.5337 271.199 136.094L271.188 137.84C270.252 211.652 210.127 271.2 136.093 271.201L134.347 271.189C123.272 271.049 112.52 269.574 102.24 266.922C100.466 266.464 99.251 264.849 99.251 263.017V237.582C99.251 234.707 102.141 232.722 104.879 233.598C114.72 236.746 125.208 238.447 136.093 238.447C192.621 238.447 238.445 192.622 238.445 136.094C238.445 107.091 226.382 80.9058 207 62.2814C206.179 61.4924 205.701 60.408 205.701 59.2692V27.5212ZM137.839 0.998535C148.918 1.13889 159.676 2.61283 169.959 5.26722C171.733 5.72507 172.948 7.34034 172.948 9.17223V34.609C172.948 37.4845 170.058 39.4696 167.32 38.5931C157.475 35.4424 146.983 33.7408 136.093 33.7407C79.5647 33.7407 33.7393 79.5661 33.7393 136.094C33.7394 165.104 45.8085 191.294 65.1989 209.919C66.0205 210.708 66.498 211.792 66.498 212.931V244.673C66.498 247.858 63.0312 249.802 60.3944 248.016C24.9944 224.027 1.57787 183.686 0.99707 137.84L0.986328 136.094C0.986328 61.4771 61.4757 0.987793 136.093 0.987793L137.839 0.998535Z"/>
</mask>
<path d="M205.701 27.5212C205.701 24.3358 209.168 22.3918 211.805 24.1791C247.646 48.4739 271.199 89.5337 271.199 136.094L271.188 137.84C270.252 211.652 210.127 271.2 136.093 271.201L134.347 271.189C123.272 271.049 112.52 269.574 102.24 266.922C100.466 266.464 99.251 264.849 99.251 263.017V237.582C99.251 234.707 102.141 232.722 104.879 233.598C114.72 236.746 125.208 238.447 136.093 238.447C192.621 238.447 238.445 192.622 238.445 136.094C238.445 107.091 226.382 80.9058 207 62.2814C206.179 61.4924 205.701 60.408 205.701 59.2692V27.5212ZM137.839 0.998535C148.918 1.13889 159.676 2.61283 169.959 5.26722C171.733 5.72507 172.948 7.34034 172.948 9.17223V34.609C172.948 37.4845 170.058 39.4696 167.32 38.5931C157.475 35.4424 146.983 33.7408 136.093 33.7407C79.5647 33.7407 33.7393 79.5661 33.7393 136.094C33.7394 165.104 45.8085 191.294 65.1989 209.919C66.0205 210.708 66.498 211.792 66.498 212.931V244.673C66.498 247.858 63.0312 249.802 60.3944 248.016C24.9944 224.027 1.57787 183.686 0.99707 137.84L0.986328 136.094C0.986328 61.4771 61.4757 0.987793 136.093 0.987793L137.839 0.998535Z" fill="white"/>
<path d="M271.199 136.094L277.46 136.136L277.46 136.115V136.094H271.199ZM271.188 137.84L277.448 137.92L277.448 137.901L277.448 137.882L271.188 137.84ZM136.093 271.201L136.051 277.461L136.072 277.461L136.093 277.461L136.093 271.201ZM134.347 271.189L134.267 277.449L134.286 277.449L134.305 277.45L134.347 271.189ZM136.093 238.447L136.093 244.708L136.093 244.708L136.093 238.447ZM238.445 136.094L244.706 136.094V136.094H238.445ZM137.839 0.998535L137.918 -5.26174L137.898 -5.262L137.877 -5.26212L137.839 0.998535ZM136.093 33.7407L136.093 27.4799H136.093V33.7407ZM33.7393 136.094L27.4785 136.094L27.4785 136.094L33.7393 136.094ZM0.99707 137.84L-5.26359 137.879L-5.26346 137.899L-5.2632 137.92L0.99707 137.84ZM0.986328 136.094H-5.27445V136.113L-5.27433 136.133L0.986328 136.094ZM136.093 0.987793L136.131 -5.27286L136.112 -5.27298H136.093V0.987793ZM65.1989 209.919L60.8619 214.434L65.1989 209.919ZM167.32 38.5931L165.411 44.5559L167.32 38.5931ZM207 62.2814L211.338 57.767L207 62.2814ZM211.805 24.1791L208.292 29.3615L211.805 24.1791ZM104.879 233.598L102.971 239.561L104.879 233.598ZM102.24 266.922L100.676 272.984L102.24 266.922ZM211.805 24.1791L208.292 29.3615C242.488 52.5411 264.938 91.6971 264.938 136.094H271.199H277.46C277.46 87.3703 252.804 44.4067 215.318 18.9967L211.805 24.1791ZM271.199 136.094L264.939 136.052L264.927 137.798L271.188 137.84L277.448 137.882L277.46 136.136L271.199 136.094ZM271.188 137.84L264.927 137.761C264.035 208.151 206.695 264.94 136.093 264.94L136.093 271.201L136.093 277.461C213.558 277.461 276.469 215.154 277.448 137.92L271.188 137.84ZM136.093 271.201L136.135 264.94L134.389 264.928L134.347 271.189L134.305 277.45L136.051 277.461L136.093 271.201ZM134.347 271.189L134.426 264.929C123.858 264.795 113.603 263.388 103.805 260.86L102.24 266.922L100.676 272.984C111.436 275.761 122.687 277.303 134.267 277.449L134.347 271.189ZM99.251 263.017H105.512V237.582H99.251H92.9902V263.017H99.251ZM104.879 233.598L102.971 239.561C113.421 242.904 124.552 244.708 136.093 244.708V238.447V232.186C125.863 232.186 116.018 230.588 106.787 227.635L104.879 233.598ZM136.093 238.447L136.093 244.708C196.078 244.707 244.706 196.08 244.706 136.094L238.445 136.094L232.185 136.094C232.184 189.164 189.163 232.186 136.093 232.186L136.093 238.447ZM238.445 136.094H244.706C244.706 105.318 231.897 77.5229 211.338 57.767L207 62.2814L202.662 66.7959C220.867 84.2888 232.185 108.865 232.185 136.094H238.445ZM205.701 59.2692H211.962V27.5212H205.701H199.44V59.2692H205.701ZM137.839 0.998535L137.76 7.25881C148.333 7.39276 158.593 8.79916 168.394 11.3293L169.959 5.26722L171.524 -0.794854C160.759 -3.5735 149.503 -5.11497 137.918 -5.26174L137.839 0.998535ZM172.948 9.17223H166.687V34.609H172.948H179.209V9.17223H172.948ZM167.32 38.5931L169.228 32.6303C158.774 29.2846 147.639 27.48 136.093 27.4799L136.093 33.7407L136.093 40.0015C146.327 40.0015 156.176 41.6002 165.411 44.5559L167.32 38.5931ZM136.093 33.7407V27.4799C76.1069 27.4799 27.4785 76.1084 27.4785 136.094H33.7393H40C40 83.0238 83.0224 40.0015 136.093 40.0015V33.7407ZM33.7393 136.094L27.4785 136.094C27.4786 166.877 40.2935 194.678 60.8619 214.434L65.1989 209.919L69.5359 205.403C51.3235 187.91 40.0001 163.33 40 136.094L33.7393 136.094ZM66.498 212.931H60.2373V244.673H66.498H72.7588V212.931H66.498ZM60.3944 248.016L63.9065 242.833C30.1312 219.945 7.81112 181.474 7.25734 137.761L0.99707 137.84L-5.2632 137.92C-4.65538 185.898 19.8576 228.109 56.8822 253.198L60.3944 248.016ZM0.99707 137.84L7.25773 137.802L7.24698 136.056L0.986328 136.094L-5.27433 136.133L-5.26359 137.879L0.99707 137.84ZM0.986328 136.094H7.2471C7.2471 64.9348 64.9334 7.24857 136.093 7.24857V0.987793V-5.27298C58.0179 -5.27298 -5.27445 58.0194 -5.27445 136.094H0.986328ZM136.093 0.987793L136.054 7.24845L137.8 7.25919L137.839 0.998535L137.877 -5.26212L136.131 -5.27286L136.093 0.987793ZM65.1989 209.919L60.8619 214.434C60.4965 214.083 60.2373 213.554 60.2373 212.931H66.498H72.7588C72.7588 210.031 71.5445 207.333 69.5359 205.403L65.1989 209.919ZM172.948 34.609H166.687C166.687 33.8348 167.105 33.2053 167.568 32.8807C168.012 32.5695 168.628 32.4381 169.228 32.6303L167.32 38.5931L165.411 44.5559C171.927 46.6414 179.209 41.998 179.209 34.609H172.948ZM207 62.2814L211.338 57.767C211.703 58.118 211.962 58.6468 211.962 59.2692H205.701H199.44C199.44 62.1693 200.654 64.8667 202.662 66.7959L207 62.2814ZM211.805 24.1791L215.318 18.9967C208.274 14.2218 199.44 19.6186 199.44 27.5212H205.701H211.962C211.962 28.335 211.476 29.0876 210.791 29.4659C210.08 29.8586 209.066 29.8861 208.292 29.3615L211.805 24.1791ZM169.959 5.26722L168.394 11.3293C167.32 11.052 166.687 10.1083 166.687 9.17223H172.948H179.209C179.209 4.57241 176.146 0.398118 171.524 -0.794854L169.959 5.26722ZM99.251 237.582H105.512C105.512 238.356 105.094 238.986 104.631 239.311C104.187 239.622 103.572 239.753 102.971 239.561L104.879 233.598L106.787 227.635C100.271 225.551 92.9902 230.194 92.9902 237.582H99.251ZM66.498 244.673H60.2373C60.2373 243.859 60.723 243.107 61.4078 242.729C62.1189 242.336 63.1326 242.308 63.9065 242.833L60.3944 248.016L56.8822 253.198C63.9266 257.972 72.7588 252.575 72.7588 244.673H66.498ZM102.24 266.922L103.805 260.86C104.879 261.137 105.512 262.081 105.512 263.017H99.251H92.9902C92.9902 267.617 96.0541 271.792 100.676 272.984L102.24 266.922Z" fill="white" mask="url(#path-1-inside-1_58_161)"/>
<path d="M73.9178 113.356C79.8291 113.356 84.417 114.79 87.6814 117.658C90.9459 120.481 92.5781 124.473 92.5781 129.635C92.5781 135.061 90.9459 139.296 87.6814 142.339C84.417 145.339 79.8291 146.839 73.9178 146.839H60.3527L65.6464 141.545V159.742H53.5371V113.356H73.9178ZM73.3223 137.31C75.7927 137.31 77.6896 136.693 79.013 135.458C80.3806 134.222 81.0643 132.392 81.0643 129.965C81.0643 127.627 80.3806 125.863 79.013 124.672C77.6896 123.481 75.7927 122.885 73.3223 122.885H60.3527L65.6464 117.591V142.604L60.3527 137.31H73.3223Z" fill="white"/>
<path d="M96.5277 113.356H108.637V149.552H128.29V159.742H96.5277V113.356Z" fill="white"/>
<path d="M131.828 113.356H142.482L166.767 145.78L163.591 146.839V113.356H174.774V159.742H164.186L139.901 127.451L143.144 126.392V159.742H131.828V113.356Z" fill="white"/>
<path d="M177.032 113.356H189.142L200.126 133.406L210.846 113.356H222.955L200.854 154.78H199.332L177.032 113.356ZM194.104 139.362H206.214V159.742H194.104V139.362Z" fill="white"/>
</svg>
