<svg width="539" height="539" viewBox="0 0 539 539" fill="none" xmlns="http://www.w3.org/2000/svg">
<mask id="path-1-inside-1_usdy" fill="white">
<path d="M408.36 52.9357C408.36 46.5814 415.277 42.7037 420.537 46.2693C492.023 94.7312 539 176.629 539 269.5C539 418.341 418.341 539 269.5 539C246.185 539 223.561 536.039 201.984 530.472C198.445 529.559 196.021 526.337 196.021 522.683V471.949C196.021 466.214 201.784 462.254 207.247 464.001C226.873 470.278 247.791 473.667 269.5 473.667C382.258 473.667 473.667 382.258 473.667 269.5C473.667 211.652 449.607 159.424 410.95 122.274C409.312 120.7 408.36 118.537 408.36 116.266V52.9357ZM269.5 0C292.833 0 315.474 2.96528 337.066 8.53955C340.603 9.45294 343.027 12.6749 343.027 16.3289V67.0654C343.027 72.8013 337.262 76.761 331.799 75.0125C312.159 68.7266 291.226 65.333 269.5 65.333C156.742 65.333 65.333 156.742 65.333 269.5C65.333 327.371 89.4118 379.617 128.096 416.77C129.735 418.344 130.688 420.507 130.688 422.78V486.096C130.688 492.45 123.772 496.328 118.513 492.764C46.9982 444.306 0 362.392 0 269.5C0 120.659 120.659 0 269.5 0Z"/>
</mask>
<path d="M408.36 52.9357C408.36 46.5814 415.277 42.7037 420.537 46.2693C492.023 94.7312 539 176.629 539 269.5C539 418.341 418.341 539 269.5 539C246.185 539 223.561 536.039 201.984 530.472C198.445 529.559 196.021 526.337 196.021 522.683V471.949C196.021 466.214 201.784 462.254 207.247 464.001C226.873 470.278 247.791 473.667 269.5 473.667C382.258 473.667 473.667 382.258 473.667 269.5C473.667 211.652 449.607 159.424 410.95 122.274C409.312 120.7 408.36 118.537 408.36 116.266V52.9357ZM269.5 0C292.833 0 315.474 2.96528 337.066 8.53955C340.603 9.45294 343.027 12.6749 343.027 16.3289V67.0654C343.027 72.8013 337.262 76.761 331.799 75.0125C312.159 68.7266 291.226 65.333 269.5 65.333C156.742 65.333 65.333 156.742 65.333 269.5C65.333 327.371 89.4118 379.617 128.096 416.77C129.735 418.344 130.688 420.507 130.688 422.78V486.096C130.688 492.45 123.772 496.328 118.513 492.764C46.9982 444.306 0 362.392 0 269.5C0 120.659 120.659 0 269.5 0Z" fill="white"/>
<path d="M65.333 269.5H52.8445H65.333ZM128.096 416.77L136.746 407.762L128.096 416.77ZM331.799 75.0125L327.992 86.9067L331.799 75.0125ZM410.95 122.274L402.297 131.279L410.95 122.274ZM337.066 8.53955L333.944 20.6316L337.066 8.53955ZM207.247 464.001L203.442 475.896L207.247 464.001ZM118.513 492.764L111.507 503.102L118.513 492.764ZM201.984 530.472L205.103 518.38L201.984 530.472ZM420.537 46.2693L413.529 56.6064L420.537 46.2693ZM420.537 46.2693L413.529 56.6064C481.734 102.844 526.511 180.944 526.511 269.5H539H551.489C551.489 172.314 502.312 86.6185 427.544 35.9322L420.537 46.2693ZM539 269.5H526.511C526.511 411.444 411.444 526.511 269.5 526.511V539V551.489C425.238 551.489 551.489 425.238 551.489 269.5H539ZM269.5 539V526.511C247.246 526.511 225.67 523.685 205.103 518.38L201.984 530.472L198.864 542.565C221.451 548.392 245.123 551.489 269.5 551.489V539ZM196.021 522.683H208.509V471.949H196.021H183.532V522.683H196.021ZM207.247 464.001L203.442 475.896C224.284 482.562 246.484 486.156 269.5 486.156V473.667V461.178C249.097 461.178 229.462 457.995 211.051 452.106L207.247 464.001ZM269.5 473.667V486.156C389.155 486.156 486.156 389.155 486.156 269.5H473.667H461.178C461.178 375.361 375.361 461.178 269.5 461.178V473.667ZM473.667 269.5H486.156C486.156 208.115 460.609 152.676 419.604 113.27L410.95 122.274L402.297 131.279C438.606 166.172 461.178 215.189 461.178 269.5H473.667ZM408.36 116.266H420.849V52.9357H408.36H395.872V116.266H408.36ZM269.5 0V12.4885C291.771 12.4885 313.363 15.3184 333.944 20.6316L337.066 8.53955L340.187 -3.55251C317.584 -9.38781 293.895 -12.4885 269.5 -12.4885V0ZM343.027 16.3289H330.539V67.0654H343.027H355.516V16.3289H343.027ZM331.799 75.0125L335.606 63.1184C314.751 56.4433 292.533 52.8445 269.5 52.8445V65.333V77.8215C289.919 77.8215 309.568 81.0099 327.992 86.9067L331.799 75.0125ZM269.5 65.333V52.8445C149.845 52.8445 52.8445 149.845 52.8445 269.5H65.333H77.8215C77.8215 163.639 163.639 77.8215 269.5 77.8215V65.333ZM65.333 269.5H52.8445C52.8445 330.909 78.4111 386.367 119.445 425.777L128.096 416.77L136.746 407.762C100.412 372.867 77.8215 323.832 77.8215 269.5H65.333ZM130.688 422.78H118.199V486.096H130.688H143.176V422.78H130.688ZM118.513 492.764L125.518 482.425C57.2862 436.192 12.4885 358.076 12.4885 269.5H0H-12.4885C-12.4885 366.708 36.7102 452.42 111.507 503.102L118.513 492.764ZM0 269.5H12.4885C12.4885 127.556 127.556 12.4885 269.5 12.4885V0V-12.4885C113.762 -12.4885 -12.4885 113.762 -12.4885 269.5H0ZM128.096 416.77L119.445 425.777C118.716 425.077 118.199 424.021 118.199 422.78H130.688H143.176C143.176 416.993 140.753 411.611 136.746 407.762L128.096 416.77ZM343.027 67.0654H330.539C330.539 65.521 331.372 64.2652 332.296 63.6179C333.181 62.9972 334.409 62.7352 335.606 63.1184L331.799 75.0125L327.992 86.9067C340.99 91.0668 355.516 81.8048 355.516 67.0654H343.027ZM410.95 122.274L419.604 113.27C420.332 113.97 420.849 115.025 420.849 116.266H408.36H395.872C395.872 122.05 398.293 127.431 402.297 131.279L410.95 122.274ZM337.066 8.53955L333.944 20.6316C331.801 20.0784 330.539 18.1958 330.539 16.3289H343.027H355.516C355.516 7.15396 349.406 -1.17253 340.187 -3.55251L337.066 8.53955ZM196.021 471.949H208.509C208.509 473.493 207.676 474.749 206.753 475.396C205.867 476.017 204.64 476.279 203.442 475.896L207.247 464.001L211.051 452.106C198.054 447.95 183.532 457.212 183.532 471.949H196.021ZM130.688 486.096H118.199C118.199 484.473 119.168 482.972 120.534 482.217C121.952 481.434 123.974 481.379 125.518 482.425L118.513 492.764L111.507 503.102C125.559 512.623 143.176 501.858 143.176 486.096H130.688ZM201.984 530.472L205.103 518.38C207.246 518.933 208.509 520.815 208.509 522.683H196.021H183.532C183.532 531.859 189.644 540.186 198.864 542.565L201.984 530.472ZM420.537 46.2693L427.544 35.9322C413.493 26.4065 395.872 37.1718 395.872 52.9357H408.36H420.849C420.849 54.559 419.88 56.0602 418.513 56.8148C417.095 57.5982 415.073 57.6529 413.529 56.6064L420.537 46.2693Z" fill="white" mask="url(#path-1-inside-1_usdy)"/>
<!-- USDY Text -->
<path d="M118.5 224.147H142.655V276.414C142.655 283.146 144.371 288.338 147.803 291.99C151.323 295.642 156.339 297.468 162.851 297.468C169.275 297.468 174.203 295.642 177.635 291.99C181.155 288.338 182.915 283.146 182.915 276.414V224.147H207.07V277.866C207.07 286.93 205.354 294.586 201.922 300.834C198.578 307.082 193.782 311.878 187.534 315.222C181.286 318.478 173.762 320.106 164.962 320.106C156.075 320.106 148.463 318.478 142.127 315.222C135.879 311.878 131.083 307.082 127.739 300.834C124.395 294.586 122.723 286.93 122.723 277.866V224.147H118.5Z" fill="white"/>
<path d="M250.844 320.106C242.309 320.106 234.697 318.742 228.009 316.014C221.409 313.198 216.217 309.238 212.433 304.134C208.649 298.942 206.713 292.87 206.625 285.918H232.232C232.496 290.054 234.08 293.486 236.984 296.214C239.888 298.854 243.892 300.174 248.996 300.174C254.188 300.174 258.28 298.942 261.272 296.478C264.264 293.926 265.76 290.67 265.76 286.71C265.76 283.454 264.748 280.77 262.724 278.658C260.788 276.546 258.28 274.874 255.2 273.642C252.208 272.41 247.896 271.046 242.264 269.55C234.476 267.35 228.14 265.15 223.256 262.95C218.372 260.75 214.148 257.318 210.584 252.654C207.108 247.99 205.37 241.786 205.37 234.042C205.37 222.714 209.462 213.87 217.646 207.51C225.83 201.15 236.456 197.97 249.524 197.97C262.768 197.97 273.482 201.15 281.666 207.51C289.85 213.782 294.178 222.538 294.65 233.778H268.576C268.4 230.082 266.816 227.046 263.824 224.67C260.832 222.206 256.916 220.974 252.12 220.974C247.94 220.974 244.596 222.074 242.088 224.274C239.58 226.386 238.326 229.422 238.326 233.382C238.326 237.694 240.174 241.038 243.87 243.414C247.566 245.79 253.33 248.254 261.206 250.806C269.082 253.446 275.374 255.91 280.082 258.198C284.878 260.398 289.014 263.742 292.49 268.23C296.054 272.718 297.836 278.614 297.836 285.918C297.836 292.342 296.186 298.238 292.886 303.606C289.674 308.974 284.878 313.33 278.498 316.674C272.118 319.93 264.44 321.558 255.464 321.558L250.844 320.106Z" fill="white"/>
<path d="M307.157 224.147H342.225C354.105 224.147 364.291 226.567 372.783 231.407C381.363 236.159 387.963 242.847 392.583 251.471C397.291 260.007 399.645 269.923 399.645 281.163C399.645 292.403 397.291 302.363 392.583 311.043C387.963 319.635 381.363 326.323 372.783 331.107C364.291 335.803 354.105 338.151 342.225 338.151H307.157V224.147ZM341.169 317.955C353.929 317.955 363.851 314.291 370.935 306.963C378.019 299.635 381.561 289.455 381.561 276.411C381.561 263.367 378.019 253.143 370.935 245.739C363.851 238.335 353.929 234.633 341.169 234.633H331.312V317.955H341.169Z" fill="white"/>
<path d="M405.157 224.147H429.312L451.223 264.141L472.606 224.147H496.761L452.675 306.775H449.639L405.157 224.147ZM439.212 276.02H463.366V316.674H439.212V276.02Z" fill="white"/>
</svg>
