<svg width="200" height="200" viewBox="0 0 200 200" fill="none" xmlns="http://www.w3.org/2000/svg">
<!-- Broken circle frame -->
<path d="M141.789 35.1211C141.789 33.2141 143.865 32.0501 145.443 33.1201C166.9 47.6643 181 72.2435 181 100.117C181 144.788 144.788 181 100.117 181C93.1186 181 86.3281 180.11 79.8516 178.438C78.7897 178.164 78.0617 177.198 78.0615 176.102V160.874C78.0615 159.153 79.7912 157.965 81.4307 158.489C87.3218 160.374 93.6006 161.392 100.117 161.392C133.958 161.392 161.392 133.958 161.392 100.117C161.392 82.7545 154.17 67.0792 142.566 55.9297C142.075 55.4573 141.789 54.8077 141.789 54.126V35.1211ZM100.117 19.2344C107.119 19.2344 113.913 20.1236 120.392 21.7959C121.453 22.07 122.181 23.0373 122.181 24.1338V39.3623C122.18 41.0835 120.45 42.2717 118.811 41.7471C112.917 39.8612 106.636 38.8428 100.117 38.8428C66.276 38.8428 38.8428 66.276 38.8428 100.117C38.8428 117.483 46.0685 133.161 57.6758 144.311C58.1675 144.783 58.4531 145.432 58.4531 146.114V165.118C58.4531 167.025 56.3774 168.189 54.7988 167.119C33.3383 152.576 19.2344 127.994 19.2344 100.117C19.2344 55.4468 55.4468 19.2344 100.117 19.2344Z" fill="#3B82F6"/>
<!-- Letter E - bold geometric sans-serif, centered at 100,100 -->
<path d="M64 140V60H140V76H80V92H132V108H80V124H140V140H64Z" fill="#3B82F6"/>
</svg>
