<svg width="1006" height="219" viewBox="0 0 1006 219" fill="none" xmlns="http://www.w3.org/2000/svg">
<path d="M165.752 21.4866C165.752 18.9074 168.56 17.3333 170.695 18.7804C199.716 38.451 218.79 71.694 218.79 109.395C218.79 169.812 169.812 218.79 109.395 218.79C99.9283 218.79 90.7432 217.585 81.9828 215.324C80.5465 214.953 79.5624 213.645 79.5624 212.162V191.562C79.5624 189.234 81.9022 187.627 84.1195 188.337C92.0879 190.888 100.58 192.269 109.395 192.269C155.166 192.269 192.269 155.166 192.269 109.395C192.269 85.9107 182.498 64.7113 166.804 49.6315C166.139 48.9926 165.752 48.1146 165.752 47.1925V21.4866Z" fill="white"/>
<path d="M109.395 0C118.863 0 128.049 1.20463 136.811 3.46607C138.247 3.83678 139.231 5.14468 139.231 6.62802V27.2238C139.231 29.5519 136.891 31.1592 134.674 30.4496C126.705 27.8992 118.211 26.5208 109.395 26.5208C63.6244 26.5208 26.5208 63.6244 26.5208 109.395C26.5208 132.88 36.2941 154.079 51.99 169.158C52.655 169.797 53.0416 170.675 53.0416 171.598V197.304C53.0416 199.883 50.2343 201.457 48.0993 200.01C19.0757 180.34 0 147.097 0 109.395C0 48.9778 48.9778 0 109.395 0Z" fill="white"/>
<path d="M139.435 109.5C139.435 109.443 139.389 109.397 139.332 109.397C139.275 109.397 139.229 109.35 139.229 109.293C139.173 92.8638 125.839 79.5611 109.397 79.5602C105.795 79.5602 102.343 80.1994 99.1469 81.3696C96.7139 82.2604 93.826 80.6142 93.826 78.0233V57.7195C93.826 56.2407 94.8032 54.9308 96.2413 54.5866C100.462 53.5764 104.866 53.0394 109.397 53.0394L110.85 53.0585C140.818 53.8181 164.971 77.9716 165.731 107.939L165.75 109.397C165.749 127.32 157.382 143.29 144.34 153.611C142.293 155.231 139.435 153.683 139.435 151.072V109.5Z" fill="white"/>
<path d="M107.939 165.731C77.4885 164.959 53.0403 140.033 53.0394 109.397L53.0585 107.939C53.5124 90.0382 62.3152 74.2132 75.7174 64.2086C77.7792 62.6694 80.5675 64.2286 80.5675 66.8015V101.267C80.5675 101.555 80.529 101.842 80.4589 102.121C79.8746 104.45 79.5602 106.886 79.5602 109.397C79.5611 125.873 92.9197 139.229 109.397 139.229C113.381 139.229 117.184 138.448 120.66 137.031C123.125 136.026 126.173 137.677 126.173 140.34V160.773C126.173 162.224 125.232 163.516 123.828 163.887C119.222 165.103 114.385 165.75 109.397 165.75L107.939 165.731Z" fill="white"/>
<path d="M370.712 36.2372C381.353 36.2372 391.243 38.0789 400.384 41.7624C409.661 45.4459 417.71 50.63 424.531 57.3148C431.489 63.9997 436.878 71.7759 440.697 80.6435C444.654 89.3747 446.632 98.8562 446.632 109.088C446.632 119.32 444.654 128.938 440.697 137.942C436.878 146.81 431.489 154.586 424.531 161.271C417.71 167.955 409.661 173.208 400.384 177.028C391.243 180.711 381.353 182.553 370.712 182.553C360.07 182.553 350.111 180.711 340.834 177.028C331.694 173.208 323.645 167.955 316.687 161.271C309.866 154.586 304.477 146.81 300.521 137.942C296.701 128.938 294.791 119.32 294.791 109.088C294.791 98.8562 296.701 89.3065 300.521 80.4389C304.477 71.5712 309.866 63.8632 316.687 57.3148C323.645 50.63 331.694 45.4459 340.834 41.7624C350.111 38.0789 360.07 36.2372 370.712 36.2372ZM370.916 56.7009C363.822 56.7009 357.137 58.0652 350.862 60.7937C344.723 63.3857 339.266 67.0692 334.491 71.8441C329.716 76.619 325.964 82.2124 323.236 88.6244C320.644 94.8999 319.348 101.721 319.348 109.088C319.348 116.455 320.712 123.345 323.44 129.756C326.169 136.168 329.92 141.83 334.695 146.741C339.47 151.516 344.927 155.268 351.066 157.996C357.342 160.725 363.958 162.089 370.916 162.089C377.874 162.089 384.422 160.725 390.561 157.996C396.837 155.268 402.294 151.516 406.932 146.741C411.571 141.83 415.186 136.168 417.778 129.756C420.507 123.345 421.871 116.455 421.871 109.088C421.871 101.721 420.507 94.8999 417.778 88.6244C415.186 82.2124 411.571 76.619 406.932 71.8441C402.294 67.0692 396.837 63.3857 390.561 60.7937C384.422 58.0652 377.874 56.7009 370.916 56.7009Z" fill="white"/>
<path d="M472.328 37.6696H496.476V160.247H558.481V180.916H472.328V37.6696Z" fill="white"/>
<path d="M643.851 37.6696C653.81 37.6696 662.337 39.1021 669.431 41.967C676.661 44.8319 682.187 48.9247 686.007 54.2453C689.963 59.5658 691.941 65.9778 691.941 73.4812C691.941 81.5303 689.69 88.4197 685.188 94.1496C680.686 99.8794 674.547 103.631 666.771 105.405C676.32 107.042 683.824 111.066 689.281 117.478C694.738 123.89 697.466 131.939 697.466 141.625C697.466 149.811 695.352 156.837 691.123 162.703C686.893 168.569 680.891 173.071 673.114 176.209C665.338 179.347 656.061 180.916 645.284 180.916H581.641V37.6696H643.851ZM642.623 97.2191C650.263 97.2191 656.266 95.5138 660.632 92.1032C664.997 88.5561 667.18 83.6448 667.18 77.3693C667.18 71.2302 664.997 66.5235 660.632 63.2493C656.266 59.8387 650.263 58.2016 642.623 58.338H605.789V97.2191H642.623ZM642.623 160.247C652.037 160.384 659.404 158.61 664.724 154.927C670.045 151.107 672.705 145.718 672.705 138.761C672.705 132.212 670.045 127.096 664.724 123.413C659.404 119.593 652.037 117.751 642.623 117.888H605.789V160.247H642.623Z" fill="white"/>
<path d="M784.244 37.6696C802.661 37.6696 816.849 41.967 826.808 50.5618C836.904 59.0201 841.951 70.9573 841.951 86.3733C841.951 102.471 836.904 115.023 826.808 124.027C816.849 132.894 802.661 137.328 784.244 137.328H750.274V180.916H726.127V37.6696H784.244ZM784.244 116.66C795.294 116.66 803.821 114.272 809.823 109.497C815.963 104.586 819.032 97.0827 819.032 86.9873C819.032 77.3011 815.963 70.1388 809.823 65.5003C803.821 60.7255 795.294 58.338 784.244 58.338H750.274V116.66H784.244ZM785.062 127.915H808.8L844.407 180.916H816.986L785.062 127.915Z" fill="white"/>
<path d="M918.62 37.6696H943.381L1006 180.916H980.216L930.284 62.0215L880.558 180.916H855.387L918.62 37.6696ZM886.901 127.301H972.644V147.765H886.901V127.301Z" fill="white"/>
</svg>
