<svg width="500" height="500" viewBox="0 0 500 500" fill="none" xmlns="http://www.w3.org/2000/svg">
<g clip-path="url(#clip0_127_26)">
<path d="M378.793 49.1032C378.793 43.209 385.209 39.6118 390.088 42.9188C456.411 87.8721 500 163.842 500 250C500 388.071 388.071 500 250 500C228.366 500 207.375 497.246 187.355 492.079C184.073 491.232 181.824 488.243 181.824 484.853V437.777C181.824 432.456 187.171 428.783 192.238 430.405C210.448 436.235 229.855 439.392 250 439.392C354.599 439.392 439.392 354.599 439.392 250C439.392 196.331 417.063 147.885 381.196 113.423C379.676 111.963 378.793 109.956 378.793 107.849V49.1032Z" fill="#4d93ff"/>
<path d="M250 0C271.637 0 292.631 2.75294 312.654 7.921C315.936 8.76819 318.185 11.7571 318.185 15.147V62.2144C318.185 67.5349 312.838 71.208 307.77 69.5864C289.558 63.7579 270.147 60.6079 250 60.6079C145.401 60.6079 60.6079 145.401 60.6079 250C60.6079 303.671 82.9428 352.115 118.813 386.577C120.332 388.037 121.216 390.044 121.216 392.151V450.897C121.216 456.791 114.8 460.389 109.921 457.082C43.5937 412.13 0 336.161 0 250C0 111.929 111.929 0 250 0Z" fill="#4d93ff"/>
<path d="M318.651 250.239C318.651 250.109 318.545 250.004 318.415 250.004C318.285 250.004 318.18 249.897 318.18 249.767C318.052 212.221 287.579 181.821 250.004 181.819C241.773 181.819 233.884 183.279 226.58 185.954C221.02 187.989 214.42 184.227 214.42 178.306V131.906C214.42 128.527 216.653 125.533 219.94 124.747C229.585 122.438 239.651 121.211 250.004 121.211L253.326 121.254C321.811 122.99 377.008 178.188 378.744 246.673L378.788 250.004C378.787 290.964 359.664 327.459 329.859 351.047C325.181 354.749 318.651 351.211 318.651 345.246V250.239Z" fill="#4d93ff"/>
<path d="M246.673 378.744C177.084 376.98 121.213 320.017 121.211 250.004L121.254 246.673C122.292 205.764 142.409 169.599 173.037 146.736C177.749 143.218 184.121 146.781 184.121 152.661V231.425C184.121 232.084 184.033 232.738 183.872 233.377C182.537 238.699 181.819 244.267 181.819 250.004C181.821 287.658 212.349 318.18 250.004 318.18C259.11 318.18 267.801 316.395 275.743 313.157C281.378 310.859 288.343 314.634 288.343 320.719V367.414C288.343 370.73 286.191 373.684 282.985 374.53C272.459 377.31 261.404 378.788 250.004 378.788L246.673 378.744Z" fill="#4d93ff"/>
</g>
<defs>
<clipPath id="clip0_127_26">
<rect width="500" height="500" fill="white"/>
</clipPath>
</defs>
</svg>
