<svg width="200" height="200" viewBox="0 0 200 200" fill="none" xmlns="http://www.w3.org/2000/svg">
<path d="M141.789 35.1211C141.789 33.2141 143.865 32.0501 145.443 33.1201C166.9 47.6643 181 72.2435 181 100.117C181 144.788 144.788 181 100.117 181C93.1186 181 86.3281 180.11 79.8516 178.438C78.7897 178.164 78.0617 177.198 78.0615 176.102V160.874C78.0615 159.153 79.7912 157.965 81.4307 158.489C87.3218 160.374 93.6006 161.392 100.117 161.392C133.958 161.392 161.392 133.958 161.392 100.117C161.392 82.7545 154.17 67.0792 142.566 55.9297C142.075 55.4573 141.789 54.8077 141.789 54.126V35.1211ZM100.117 19.2344C107.119 19.2344 113.913 20.1236 120.392 21.7959C121.453 22.07 122.181 23.0373 122.181 24.1338V39.3623C122.18 41.0835 120.45 42.2717 118.811 41.7471C112.917 39.8612 106.636 38.8428 100.117 38.8428C66.276 38.8428 38.8428 66.276 38.8428 100.117C38.8428 117.483 46.0685 133.161 57.6758 144.311C58.1675 144.783 58.4531 145.432 58.4531 146.114V165.118C58.4531 167.025 56.3774 168.189 54.7988 167.119C33.3383 152.576 19.2344 127.994 19.2344 100.117C19.2344 55.4468 55.4468 19.2344 100.117 19.2344ZM80.7861 103.047C80.7862 104.843 81.3011 106.269 82.3311 107.325C83.3874 108.381 84.6948 108.909 86.2529 108.909C87.8111 108.909 89.0659 108.394 90.0166 107.364C90.9935 106.308 91.4814 104.869 91.4814 103.047V86.7256H98.7314V103.047C98.7314 105.476 98.2164 107.589 97.1865 109.385C96.183 111.181 94.7432 112.567 92.8682 113.544C90.9931 114.521 88.7746 115.01 86.2129 115.01C83.6513 115.01 81.4199 114.521 79.5186 113.544C77.6171 112.567 76.1384 111.181 75.082 109.385C74.0521 107.589 73.5371 105.476 73.5371 103.047V86.7256H80.7861V103.047ZM70.375 92.4297H55.7178V97.7383H68.9492V103.403H55.7178V108.791H70.7715V114.495H48.4688V86.7256H70.375V92.4297ZM114.974 86.7256C118.671 86.7256 121.523 87.5842 123.53 89.3008C125.537 90.991 126.541 93.3808 126.541 96.4707C126.541 99.719 125.537 102.254 123.53 104.076C122.951 104.595 122.299 105.035 121.578 105.404L127.373 114.495H119.173L115.103 106.768C115.06 106.768 115.017 106.771 114.974 106.771H109.745V114.495H102.495V86.7256H114.974ZM140.675 98.7285L147.092 86.7256H154.342L144.319 105.51V114.495H137.069V105.71L126.85 86.7256H134.099L140.675 98.7285ZM109.745 101.065H114.974C116.479 101.065 117.629 100.696 118.421 99.957C119.239 99.2176 119.648 98.1213 119.648 96.6689C119.648 95.2695 119.239 94.2131 118.421 93.5C117.629 92.7869 116.479 92.4297 114.974 92.4297H109.745V101.065Z" fill="#3B82F6"/>
</svg>
