<svg width="200" height="200" viewBox="0 0 200 200" fill="none" xmlns="http://www.w3.org/2000/svg">
<path d="M141.789 35.1211C141.789 33.2141 143.865 32.0501 145.443 33.1201C166.9 47.6643 181 72.2435 181 100.117C181 144.788 144.788 181 100.117 181C93.1186 181 86.3281 180.11 79.8516 178.438C78.7897 178.164 78.0617 177.198 78.0615 176.102V160.874C78.0615 159.153 79.7912 157.965 81.4307 158.489C87.3218 160.374 93.6006 161.392 100.117 161.392C133.958 161.392 161.392 133.958 161.392 100.117C161.392 82.7545 154.17 67.0792 142.566 55.9297C142.075 55.4573 141.789 54.8077 141.789 54.126V35.1211ZM100.117 19.2344C107.119 19.2344 113.913 20.1236 120.392 21.7959C121.453 22.07 122.181 23.0373 122.181 24.1338V39.3623C122.18 41.0835 120.45 42.2717 118.811 41.7471C112.917 39.8612 106.636 38.8428 100.117 38.8428C66.276 38.8428 38.8428 66.276 38.8428 100.117C38.8428 117.483 46.0685 133.161 57.6758 144.311C58.1675 144.783 58.4531 145.432 58.4531 146.114V165.118C58.4531 167.025 56.3774 168.189 54.7988 167.119C33.3383 152.576 19.2344 127.994 19.2344 100.117C19.2344 55.4468 55.4468 19.2344 100.117 19.2344ZM62.8965 86.7256C66.4353 86.7256 69.1815 87.5842 71.1357 89.3008C73.09 90.991 74.0674 93.3808 74.0674 96.4707C74.0674 99.719 73.09 102.254 71.1357 104.076C69.1815 105.872 66.4353 106.771 62.8965 106.771H57.9443V114.495H50.6953V86.7256H62.8965ZM83.6816 108.395H95.4473V114.495H76.4316V86.7256H83.6816V108.395ZM116.58 103.598V86.7256H123.274V114.495H116.937L104.339 97.7432V114.495H97.5654V86.7256H103.943L116.58 103.598ZM138.452 98.7285L144.87 86.7256H152.119L142.097 105.51V114.495H134.848V105.712L124.627 86.7256H131.876L138.452 98.7285ZM57.9443 101.065H62.54C64.0187 101.065 65.154 100.696 65.9463 99.957C66.7649 99.2176 67.1748 98.1214 67.1748 96.6689C67.1748 95.2692 66.765 94.2131 65.9463 93.5C65.154 92.787 64.0189 92.4297 62.54 92.4297H57.9443V101.065Z" fill="#0C53BF"/>
</svg>
