<svg width="200" height="200" viewBox="0 0 200 200" fill="none" xmlns="http://www.w3.org/2000/svg">
<path d="M141.789 35.1211C141.789 33.2141 143.865 32.0501 145.443 33.1201C166.9 47.6643 181 72.2435 181 100.117C181 144.788 144.788 181 100.117 181C93.1186 181 86.3281 180.11 79.8516 178.438C78.7897 178.164 78.0617 177.198 78.0615 176.102V160.874C78.0615 159.153 79.7912 157.965 81.4307 158.489C87.3218 160.374 93.6006 161.392 100.117 161.392C133.958 161.392 161.392 133.958 161.392 100.117C161.392 82.7545 154.17 67.0792 142.566 55.9297C142.075 55.4573 141.789 54.8077 141.789 54.126V35.1211ZM100.117 19.2344C107.119 19.2344 113.913 20.1236 120.392 21.7959C121.453 22.07 122.181 23.0373 122.181 24.1338V39.3623C122.18 41.0835 120.45 42.2717 118.811 41.7471C112.917 39.8612 106.636 38.8428 100.117 38.8428C66.276 38.8428 38.8428 66.276 38.8428 100.117C38.8428 117.483 46.0685 133.161 57.6758 144.311C58.1675 144.783 58.4531 145.432 58.4531 146.114V165.118C58.4531 167.025 56.3774 168.189 54.7988 167.119C33.3383 152.576 19.2344 127.994 19.2344 100.117C19.2344 55.4468 55.4468 19.2344 100.117 19.2344ZM54.9912 103.047C54.9913 104.843 55.5062 106.269 56.5361 107.325C57.5924 108.382 58.9 108.909 60.458 108.909C62.0162 108.909 63.2709 108.394 64.2217 107.364C65.1987 106.308 65.6874 104.869 65.6875 103.047V86.7256H72.9365V103.047C72.9365 105.476 72.4215 107.589 71.3916 109.385C70.3881 111.18 68.9491 112.567 67.0742 113.544C65.1992 114.521 62.9806 115.01 60.4189 115.01C57.8572 115.01 55.6251 114.521 53.7236 113.544C51.8223 112.567 50.3434 111.18 49.2871 109.385C48.2572 107.589 47.7422 105.476 47.7422 103.047V86.7256H54.9912V103.047ZM87.4756 86.1709C89.5091 86.1709 91.5037 86.461 93.458 87.042C95.4123 87.623 97.1159 88.3765 98.5684 89.3008L95.835 95.0049C94.8578 94.3975 93.8143 93.8825 92.7051 93.46C91.6223 93.011 90.5661 92.6674 89.5361 92.4297C88.5326 92.1656 87.6477 92.0342 86.8818 92.0342C86.0103 92.0342 85.3104 92.2055 84.7822 92.5488C84.2542 92.8657 83.9903 93.3673 83.9902 94.0537C83.9902 94.7404 84.2414 95.3089 84.7432 95.7578C85.2712 96.1802 85.9707 96.5368 86.8418 96.8271C87.7133 97.1177 88.678 97.4077 89.7344 97.6982C90.7906 97.9887 91.8335 98.3324 92.8633 98.7285C93.8932 99.1247 94.8443 99.6396 95.7158 100.273C96.5873 100.881 97.2872 101.673 97.8154 102.65C98.3436 103.628 98.6074 104.842 98.6074 106.295C98.6074 108.17 98.1061 109.755 97.1025 111.049C96.099 112.316 94.7517 113.28 93.0615 113.94C91.3714 114.574 89.4964 114.892 87.4365 114.892C85.8784 114.892 84.3199 114.719 82.7617 114.376C81.2302 114.006 79.7648 113.491 78.3652 112.831C76.9919 112.144 75.7498 111.339 74.6406 110.415L77.4541 104.829C78.4048 105.674 79.4738 106.414 80.6621 107.048C81.8505 107.682 83.0527 108.183 84.2676 108.553C85.4823 108.896 86.565 109.067 87.5156 109.067C88.5983 109.067 89.4434 108.87 90.0508 108.474C90.6846 108.051 91.002 107.444 91.002 106.651C91.0019 105.965 90.7372 105.41 90.209 104.987C89.6809 104.539 88.9815 104.168 88.1104 103.878C87.2388 103.587 86.2741 103.311 85.2178 103.047C84.188 102.756 83.145 102.426 82.0889 102.057C81.059 101.661 80.1078 101.172 79.2363 100.591C78.3648 99.9834 77.6649 99.2037 77.1367 98.2529C76.635 97.3022 76.3838 96.1135 76.3838 94.6875C76.3839 92.9711 76.8336 91.4795 77.7314 90.2119C78.6558 88.9179 79.9495 87.9269 81.6133 87.2402C83.3033 86.5273 85.2575 86.171 87.4756 86.1709ZM113.086 86.7256C115.278 86.7256 117.272 87.0692 119.067 87.7559C120.89 88.4161 122.448 89.3662 123.742 90.6074C125.063 91.8221 126.079 93.2748 126.792 94.9648C127.505 96.655 127.862 98.5309 127.862 100.591C127.862 102.677 127.492 104.565 126.753 106.255C126.04 107.945 125.023 109.411 123.702 110.652C122.382 111.893 120.798 112.845 118.949 113.505C117.101 114.165 115.053 114.495 112.809 114.495H101.122V86.7256H113.086ZM140.927 98.7285L147.344 86.7256H154.593L144.571 105.509V114.495H137.321V105.709L127.101 86.7256H134.351L140.927 98.7285ZM108.372 108.711H113.284C114.34 108.711 115.304 108.526 116.176 108.156C117.047 107.76 117.8 107.206 118.434 106.493C119.094 105.78 119.596 104.935 119.939 103.958C120.283 102.955 120.454 101.858 120.454 100.67C120.454 99.4551 120.269 98.359 119.899 97.3818C119.53 96.3783 119.002 95.5197 118.315 94.8066C117.655 94.0672 116.863 93.5123 115.938 93.1426C115.041 92.7465 114.037 92.5489 112.928 92.5488H108.372V108.711Z" fill="#60A5FA"/>
</svg>
